/* XPM */
static char *_ac3957cba864e6cf779b15f0760ad075psvWa107tfl2aDq[] = {
/* columns rows colors chars-per-pixel */
"64 64 149 2 ",
"   c #020913",
".  c #0A0E17",
"X  c #0F1620",
"o  c #161C26",
"O  c #181D27",
"+  c #171E28",
"@  c #191E29",
"#  c #1C232C",
"$  c #1F2630",
"%  c #20252F",
"&  c #212731",
"*  c #242B34",
"=  c #292E37",
"-  c #272E38",
";  c #292F39",
":  c #2A3137",
">  c #2C333C",
",  c #30353E",
"<  c #32393F",
"1  c #2F3640",
"2  c #2F3841",
"3  c #313641",
"4  c #343A44",
"5  c #383E47",
"6  c #373E48",
"7  c #393F49",
"8  c #374045",
"9  c #3A4147",
"0  c #374049",
"q  c #FFFFFF",
"w  c #3F4650",
"e  c #3F4851",
"r  c #41454E",
"t  c #43494F",
"y  c #414751",
"u  c #444A54",
"i  c #494D56",
"p  c #474E58",
"a  c #494F59",
"s  c #4C5157",
"d  c #475059",
"f  c #4C525C",
"g  c #51555E",
"h  c #53585E",
"j  c #4F5660",
"k  c #4E5861",
"l  c #515761",
"z  c #505962",
"x  c #505863",
"c  c #515862",
"v  c #525963",
"b  c #515A63",
"n  c #515860",
"m  c #545861",
"M  c #565B61",
"N  c #565A63",
"B  c #515964",
"V  c #535965",
"C  c #535A64",
"Z  c #525B64",
"A  c #525A65",
"S  c #535B66",
"D  c #555964",
"F  c #545B65",
"G  c #575B64",
"H  c #575B66",
"J  c #535C65",
"K  c #555C66",
"L  c #545C67",
"P  c #565D67",
"I  c #575E66",
"U  c #545A64",
"Y  c #585B64",
"T  c #585C65",
"R  c #595C65",
"E  c #585C67",
"W  c #5A5D66",
"Q  c #5A5E67",
"!  c #5B5E67",
"~  c #595D66",
"^  c #555D68",
"/  c #565C68",
"(  c #575D69",
")  c #575E68",
"_  c #565E69",
"`  c #575F6A",
"'  c #575E68",
"]  c #595D68",
"[  c #585F69",
"{  c #5A5E69",
"}  c #585E6A",
"|  c #595F6B",
" . c #5B5F6A",
".. c #5C5F68",
"X. c #595E69",
"o. c #59606A",
"O. c #58616A",
"+. c #58606B",
"@. c #5A616B",
"#. c #5C6069",
"$. c #5C606B",
"%. c #5E616A",
"&. c #5A606C",
"*. c #5B616D",
"=. c #5B626C",
"-. c #5A636C",
";. c #5B636E",
":. c #5D616C",
">. c #5C636D",
",. c #5E626D",
"<. c #5C626E",
"1. c #5D636F",
"2. c #5F636E",
"3. c #5B646D",
"4. c #5D646E",
"5. c #5E656F",
"6. c #5C626C",
"7. c #5E6470",
"8. c #5F6571",
"9. c #5E6770",
"0. c #5E6671",
"q. c #5F6670",
"w. c #5F6871",
"e. c #60636C",
"r. c #60646D",
"t. c #61646D",
"y. c #61656E",
"u. c #60646F",
"i. c #60646F",
"p. c #616570",
"a. c #626671",
"s. c #606672",
"d. c #616671",
"f. c #626971",
"g. c #616872",
"h. c #626973",
"j. c #646871",
"k. c #656972",
"l. c #646873",
"z. c #636A74",
"x. c #646B75",
"c. c #646A76",
"v. c #656B77",
"b. c #646A74",
"n. c #686C76",
"m. c #676D79",
"M. c #676E78",
"N. c #696E79",
"B. c #6C737D",
/* pixels */
"n I ) o.4.4.n q - d f j n Z f u 2 2 > > d o.2.f.8.v.m.u 4 p f j f ) j ) ) n I f 4 * q u q u f p u f f f f d p u q # # ; 4 q i a ",
"f.f.f.f.f.f.z.f.F e 6 y y 2 > e Z J ) f u u n ) =.a.8.q u m ) j ) ) Z ) F j y 6 6 > w d f u p f f k k k f f J I n 4 m [ F a.[ a.",
"k.k.k.k.k.k.y.4.o.I u * = u [ 2.=.o.4.2.[ d u u d Z q ; Z ) [ ) ) ) =.Z q 4 > 4 > 4 y u p u u p f f j k k k I I I u F a.y.2.y.e.",
"k.k.k.y.a.2.f q q q 4 4 F z.4.=.8.o.4.o.[ I n a 6 q > u x.8.8.2.8.=.) ) y 3 3 > 3 > q w e e y u d p p f f Z I f d y m [ [ %.%.y.",
"y.e.e.%.e.%.a 7 7 5 3 q 2.2.2.x.=.3.4.o.4.=.[ ) m y & j m.=.[ 2.) Z n I u 1 1 > > > q q w y q e y u u p d f u 6 # # f Q N %.N F ",
"Y Q Q Q ..y.m q q q 4 q F [ 2.y.f 0 q u w y a u u f 3 a 2./ Z Z Z n f f f 7 > 1 > # 1 q q q q q e u y y u p d w * * u N g g N N ",
"h N Q N N Q m q q 7 3 y m m F Q 7 4 4 3 > 1 4 > > ; = d [ m j f d d f u d q > > * q 4 * 6 7 6 q q q q e y y u y > $ q f f g f g ",
"f s f g f f f u 7 4 > q a g m m 4 4 6 4 4 4 4 4 3 > ; u j j f f a u u y u q 4 * q z.y # > 6 q 6 q q q q y w u u 4 # 4 i i i i s ",
"i g a f d f m f 4 q > 7 u d F u 1 4 4 4 1 > 1 1 - > & u f f p u q y q q w q 1 # u n u q > * > 7 4 6 q q q q q d 4 # > u i i i s ",
"u i r u y q q q > $ # 4 y u d q 4 3 1 > > 1 > > 4 > = q f y w u y q q 4 1 3 3 > 6 > = * - > 3 - > = * > 4 4 4 4 > @ & 7 r r t t ",
"= 4 4 5 q q q q 6 4 > - 1 w q > 1 > > ; > ; * $ # *   4 y w 7 4 > ; > 4 y d j I n u ; X q n f I n j q w [ o.[ F F f a a r 5 , * ",
"q o.o.Q o.8.f.a.8.a.f.=.F a 4 ; & = > > 6 q y u d f p u > > a u 3 & 7 f f j F I [ y > $ p I N %.f.z.u f N.[ g F F [ F N g f i 4 ",
"q F I [ =.4.8.z.f.z.z.z.4.n q # 6 y f I =.4.w.z.x.f.=.f & w m.4.[ q y a u u d f f u 4 & q n F Q a.d > g x.u 7 4 4 5 4 5 5 4 4 > ",
"y m j I o.2.2.z.x.x.f q q 6 6 > 6 q y u p d f n n f > = * y a.6 > 4 y u a u u f f p 4 * 6 d g N %.q ; m %.7 5 5 7 4 4 4 3 3 , , ",
"u j f j F [ 2.a.x.x.y 4 q q 5 , > 4 6 q q y u d f d 3 > * 7 I > & > q w w y u y p f q * 4 u f f F r > f F 5 7 4 4 4 5 4 3 3 3 > ",
"w a u f m F [ a.x.x.u 5 7 4 5 3 > 4 6 7 q y y u p f 6 ; * 6 d 4 * 4 w q q q y u u u q > 4 r u f N q ; a f 3 4 4 4 , 4 4 3 > ; > ",
"4 y y u d d n I ) 2.y 3 5 4 3 4 = 6 > 4 5 q q r q f 6 > * 4 a > % > 6 4 q 6 q q q u q , > 5 q y d q & f y > 4 3 > 4 4 3 3 > - > ",
"4 8 q t y i f f F [ y , 3 3 3 , > > > 4 , 4 5 q u i q = - > y 1 = > 4 4 6 q 6 q q t t < = 6 q q d 5 * i q > 6 3 4 > > > > > > = ",
"> 4 5 q y y u f j n q > , 3 3 > > = > > > 4 6 q y y q > = > q 1 % > 4 4 > 6 q 4 q q u 4 = 6 q q u q # q 6 1 3 > ; > 3 > > > > > ",
"> 8 4 6 q q y p f m r > > 3 , > = # = > , 6 6 4 6 q w ; = * 1 & # 4 > 4 4 > 4 6 , 4 4 = # > 6 q y q # * * = * * ; ; - = = * * $ ",
"* > > 4 4 q u w y f q > > > - ; > u q & * * * > 3 4 6 & & > > 4 > 3 > = = = > > 4 4 4 > > > 1 3 4 > # o o # ; * % @ % > > > * # ",
"t 6 4 > - > 6 y u f q = * = 3 w g o.I d > @ q F j 4 = q y p m f f f > # 4 q 5 q q u y u a u u u p w y y ; y m g % 4 a f p u u u ",
"Q N m g p 6 - & = > > = * * > 6 q q q 7 > ; p z.) - u n n n j n Z q > = y u u u u d u p a d d f d f f i > f m u o f N.2.N f d j ",
"m N N [ [ [ a $ 6 q u d d d p d u a f d f d 6 y w > f f f Z I ) f = > & 6 u y y u a d f f j f m n F f ; > a u 3 # a k.a.a.a.o.I ",
"2.a.a.2.F g y 1 f f f f f j n f f I I F j n n u # q d p d f m n n 6 ; * > q r q q y p p a d f Z m %.a O 5 i u 5 # u %.Q ..2.y.a.",
"a.a.x.x.u 3 > > j n f f n n f f F n I I n F f y = q u y y u d f Z y > * = q 5 q q q w u p u a f g F y @ q i u 5 & r N N F F Y [ ",
"2.2.a.n.[ 3 3 > q d f g n f f f Z F o.o.=.f > * = 6 q q y u u u d f 4 * * > 6 5 q q q y p u a f f j 7 # q y u q % q f a g m Z F ",
"F [ [ 2.N.u > > q y y y u d f d f m Z Z 4.u * = > 6 6 7 q w y y u d d ; # & , 4 4 8 q q y u u p d d > % q r y q & 5 u i f a d n ",
"m Z I o.4.I = > 4 q q q q y u y f d f f F q * * > 4 4 6 q q y y u u f q # % > 6 4 6 q q q w y y a a = & r r r r = , r y u y u f ",
"a f j F [ 8.q # > 5 8 6 q r y r u u u u f 4 $ * > , , 4 6 6 q q y u y p 6 # * 4 6 4 4 5 q q q y u u * * r y r u , : 5 q q q u y ",
"a f f f I [ i o # > 5 8 q 6 q q y u d a d > O O = > > > > , 6 q q q q q q # o > 4 > < 6 q 7 q q y q # % 4 q 9 9 > % > 4 6 q y u ",
"4 4 q q q q 6 > = > > , 4 4 4 4 4 1 q 4 4 * & = = > > > > > > > ; > > 4 > # & = > 4 6 6 7 7 7 q 5 q = = & & & = , ; > > , > > 4 ",
"> w q w y u d f f j j j f d a u q r & . r Q 2.a.[ [ F m f a u y 7 = 7 o.N 8 n o.Z I ) F o.n m f d a y q 4 # > o.y.n.k.y.F a 4 O ",
"q f d d d f f f n Z F ) I I ) I Q %.m 4 %.n.N.N g f i u u y q 7 4 * > d q y o.o.o.4.I j m d u y q 6 4 > > * y B.N.[ f a q 7 4 ; ",
"q f a i d f f f j Z Z F I I ) F %.g u 4 N %.a.u r q q 7 q 7 3 > > = * > > i n I o.o.u q q q 6 4 3 1 3 > > = d x.m 6 4 4 3 3 > > ",
"5 u y y y u u d f j n Z I ) o.I 7 4 = > i g [ g u u y q q 7 4 3 > > * # 6 u d f ) Z q 7 q 7 4 4 6 4 1 > > * f a.p 4 5 5 3 4 > ; ",
"4 q q q q q q y y u i f g n I N > 4 ; > u f m m y y r 7 4 4 3 3 > > * = q q u u n d 6 6 6 6 4 4 1 > > - > * f o.7 4 4 4 1 4 1 > ",
"4 5 4 5 q q q q q y y i d f n n 3 > * & q y a a q q q 7 4 4 > > > > * < r q y u j y 4 6 6 4 4 4 4 1 > - ; * f j 3 4 4 3 > > > - ",
"< 8 4 q q 6 5 6 q q q r u u f f 4 = > 4 u u i q 7 7 5 4 4 1 > > = > % 4 r q q u u 6 4 4 4 4 1 > 4 > > > = - d w 1 4 3 > > ; ; > ",
": 4 , 6 6 4 5 5 q q 6 q q r u d 6 * > f [ k.m 3 4 7 5 4 3 > > ; = = * < q 8 q y u 4 4 1 1 > > > 3 ; > - * ; p 4 > 1 > > ; - = = ",
"* 6 6 4 6 6 6 6 6 6 6 q q q y d q # 7 u n f 4 4 ; 3 4 4 > 1 4 ; * > # > q q q y 6 4 4 > 4 > > 1 > > = > * > u > > > > > = > * * ",
"# > > > > > 4 , q 8 4 4 4 4 6 4 3 # 3 y i 7 > 3 * % > ; * * # * * $ + * > > 4 q 1 ; > > > = ; & * * * # o o * $ * # * * = # $ # ",
"d d u u q 6 4 = & > 4 4 4 4 6 6 4 4 6 7 q 4 * & * ; > 6 7 6 y y y u u u y u q q 6 > & 1 q q y y ; % 5 y u u u a u u 4 + 4 f m f ",
"k.4.o.o.n f u q # q d f f f n Z n n n m f f y 3 u a d d f f n j Z F I I ) [ n Z n u 1 u I [ 2.f.y 4 m a.2.y.a.k.a.2.u # f 4.8.z.",
"2.[ m d y 7 4 1 1 d n m n m j n j Z Z n f q ; q n f j f m n f I F I F ) [ n m d q 4 4 f n ) 4.j > 4 h Q g u u y 7 4 ; , g %.[ a.",
"7 7 6 4 4 3 1 1 > p j j I ) [ o.[ I f y > - $ 7 d d u f n f n I m o.2.2.f 6 6 - ; * 4 p u n n 4 = 4 a g u > > > > ; * 7 f m %.a ",
"q 6 6 4 4 4 > > ; w f f m Z [ =.z.z.q - - > = 4 u u u u d f f f j n I o.p - > > > - 6 q u m p ; > > u g f 4 4 4 , , * y a m m q ",
"6 6 6 4 > > > > ; 7 u a a f Z Z =.=.> ; > ; ; 4 q y y r y y u a f f j I f 3 > ; - = 7 6 w f q ; > ; r u i 4 , ; > * > i a m f 5 ",
"1 4 > > > ; > > * 4 y u p d f n F j - = * * % > 6 q q q q 8 q y y f f f n , = > * # 6 q 8 y 4 = & > 5 r u 5 ; , * = 1 y u Z y > ",
"3 1 > > > > > > = > q q q u f f F y # > > * # > q 4 6 6 5 8 8 r u u u a g q * = > 4 5 6 q q > = ; % q q y 5 , ; > * 6 u u d 4 > ",
"1 > > > - > ; = * = 6 q q u u p f 4 & > - # # > 6 6 q 4 4 6 8 6 q w u y i y * > q i r 3 q 5 & & & & 4 q q q = ; = = 6 y d u > > ",
"> > > = * * * & # # ; 4 q w q u u = * * # # # # 4 4 4 6 8 6 5 6 7 6 y u y 5 = q u u r , , , & & & # = r y 5 ; ; * # > u f 7 > > ",
"$ > > > > > > > > - > 4 6 q 4 6 4 & & # # # # # > 4 , > > > - > & # & & % O % 4 5 5 5 = @ % % # # & = , 3 3 & % # # @ * 6 = & = ",
"y ) o.=.=.) o.) [ n Z n f u q > & 7 u a f f n N n N n n f d > u %.g 4 4 g N Q Q [ Y g f i i 7 O q N g , & y y i y y y q q q 6 = ",
"f a.N.N.B.x.z.f.4.2.o.I m f p q & i f f N Q %.%.y.y.8.o.a.[ > u x.Q 4 i k.k.k.a.[ %.F m a u q * r g u # u F f n n j m f f u q 1 ",
"q f ) F n n f p y u q 6 6 1 > = , r r r r y i a g N I f Z q o 7 N q & i N %.y.u 7 5 7 5 4 3 3 3 > q r = g F [ a.n w q q 1 > 4 = ",
"q f u 4 > 1 > > > > > > > > - = 3 r q r r q u u u u u a a q # 4 g y > i f Q m q 7 7 7 7 4 4 3 3 = 4 5 5 d f ) 8.q 4 4 3 > > > - ",
"q d w 4 1 4 1 3 > > > > > > - * 4 r q q q q r r r r u u a w $ > g r > u a N i 7 q 7 7 7 4 4 3 3 , > = r d f o.d 4 > > > > > > - ",
"q u 6 > > > > > > > > > ; - = * 4 q 9 9 8 8 8 8 q q q y u y * * i 7 , y u f q 7 7 7 5 4 4 4 , > > * = y u m Z 4 > > > > > > - - ",
"q y 1 > > > > > > ; ; = = * * * 4 5 5 8 q 8 8 5 q q q q q y > # r 5 , r u i 4 7 7 5 4 4 3 3 , > > * 6 y u n q > > > > > > - = * ",
"6 q > ; > ; > - = = = = = * * * 4 4 4 4 5 5 5 4 5 4 6 6 5 q > @ 5 4 > r u r 4 4 4 4 3 3 , > > > > * 6 y d y > > > > - = - = * * ",
"3 4 - - - = = = * * = = = * & * 6 4 4 4 4 4 4 4 4 4 4 6 6 q 4 # 4 4 > r q 4 4 4 3 3 3 3 > ; > > = > q u u > ; > - = = = = = * & ",
"- > = = = = * * * * * * * $ $ # 4 4 4 < < 4 4 < 4 4 4 4 4 4 4 # : > > q 6 > 4 4 , , 3 > > ; ; ; * > q y 4 * = = * * * = * * * $ ",
"# * $ & * * & * * $ $ $ # # # # & * > : : > > : > : : : = = > # # # # > > > > ; ; ; ; ; = * * * # # 4 4 * = $ * & $ * * $ # # # "
};
